<svg id="ebMBAuVt1Uk1" xmlns="http://www.w3.org/2000/svg" xmlns:xlink="http://www.w3.org/1999/xlink" viewBox="0 0 16 16" shape-rendering="geometricPrecision" text-rendering="geometricPrecision" project-id="f00dd865544643589d764482f6bfaf2d" export-id="2241876870b54424b9a405f225923e00" cached="false"><defs><filter id="ebMBAuVt1Uk4-filter" x="-150%" width="400%" y="-150%" height="400%"><feGaussianBlur id="ebMBAuVt1Uk4-filter-drop-shadow-0-blur" in="SourceAlpha" stdDeviation="2,2"/><feOffset id="ebMBAuVt1Uk4-filter-drop-shadow-0-offset" dx="0" dy="0" result="tmp"/><feFlood id="ebMBAuVt1Uk4-filter-drop-shadow-0-flood" flood-color="#000"/><feComposite id="ebMBAuVt1Uk4-filter-drop-shadow-0-composite" operator="in" in2="tmp"/><feMerge id="ebMBAuVt1Uk4-filter-drop-shadow-0-merge" result="result"><feMergeNode id="ebMBAuVt1Uk4-filter-drop-shadow-0-merge-node-1"/><feMergeNode id="ebMBAuVt1Uk4-filter-drop-shadow-0-merge-node-2" in="SourceGraphic"/></feMerge></filter></defs><g transform="matrix(.026178 0 0 0.026178-.635334-.167536)"><g transform="matrix(2.224676 0 0 2.224678-374.276019-242.683348)"><ellipse rx="61.101301" ry="61.101301" transform="matrix(1.989427 0 0 1.989427 308.483593 249.331973)" filter="url(#ebMBAuVt1Uk4-filter)" fill="none" stroke="#000" stroke-width="5"/><path d="M418.792507,274.818104c2.491276-3.940804,2.491276-7.101573,2.491276-9.325479-5.24375-.510755-6.186766-5.169407-13.329868,0-21.021959,19.816643-74.054721,28.388487-94.953916-7.140153-13.500395-22.950676,19.74901-85.246755,75.03309-50.564466-20.824582-46.930634-78.754683-53.967839-108.589958-24.065589-32.123352,32.195463-46.158868,59.160701-84.13187,68.554549-.201365,1.975282.63773,9.345797,1.471881,11.694555c61.302571,0,76.953304-75.857,121.870251-75.857-87.374776,54.011437,0,197.964847,100.139114,86.703583Z" transform="translate(.000001-.02)" stroke-width="1.252"/><path d="M407.953916,301.26999c-11.667827,18.908622-32.202927,45.635175-65.240851,51.040264-28.868836,7.459481-81.071543-8.985687-108.823834-55.489838h-25.274349c-3.935788-4.083763-7.360919-15.281222-7.803738-22.002312c30.022714,0,54.891987-18.698354,69.006452-36.17297-4.985719,105.258663,99.396108,110.187235,138.13632,62.624856Z" fill="none" stroke-width="1.252"/><path d="M389.36294,209.277448c-46.649876-35.958539-63.971431-49.734617-97.576764-28.065767-32.883078,21.203137-47.161058,66.235262-96.05837,77.161001-.14-1.588106-.440636-2.893836-.416545-6.075506c28.709231-9.509898,30.843918-13.611832,74.506334-64.182655c35.98765-41.681731,104.448665-31.408766,119.545345,21.162927Z" transform="translate(.000001-.04021)" fill="#272727" stroke-width="1.252"/><path d="M388.03309,207.788006c-95.186005-47.09956-90.574783,133.694495,32.931361,47.65063l.319332,10.053989c-122.189484,88.37795-143.924817-47.644438-88.534774-72.88547c13.774596-6.277031,33.181895-3.468096,55.284081,15.180851Z" transform="translate(.000001 0)" fill="#3c3c3c" stroke-width="1.252"/><path d="M203.139857,285.384162c23.736735,1.765226,36.23887-4.56398,47.206858-11.006094c15.229542,51.962173,50.681972,78.752963,127.082697,61.46568-35.354033,37.195283-107.3556,15.832513-144.003134-38.468324l-24.548865.253081c-2.342397-3.158758-5.377896-9.25528-5.737556-12.244343Z" transform="translate(0 0.30169)" fill="#292929" stroke-width="1.252"/><path d="M214.461183,308.612712l10.660419-.426416c23.693164,32.802377,49.685544,47.469652,78.133894,51.356039-11.773034-.111841-62.05435-4.666382-88.794313-50.929623Z" transform="translate(.000001 0.000002)" stroke-width="1.252"/></g></g></svg>
